<?xml version="1.0" encoding="utf-8"?>
<!-- Generator: Adobe Illustrator 22.0.1, SVG Export Plug-In . SVG Version: 6.00 Build 0)  -->
<svg version="1.1" id="Layer_1" xmlns="http://www.w3.org/2000/svg" xmlns:xlink="http://www.w3.org/1999/xlink" x="0px" y="0px"
	 viewBox="0 0 737.5 162.8" style="enable-background:new 0 0 737.5 162.8;" xml:space="preserve">
<style type="text/css">
	.st0{fill:#FFFFFF;}
	.st1{fill:#D5D9E0;}
</style>
<title>Artboard 1</title>
<path class="st0" d="M229.9,26.3c-3.3-1.9-7-2.9-10.9-3c-4,0-7.9,1-11.3,3.1c-3.4,2.1-6.2,5-8,8.5c-3.9,7.6-3.9,16.6,0,24.1
	c1.8,3.5,4.6,6.5,8,8.5c3.4,2.1,7.3,3.1,11.3,3.1c3.6-0.1,7.2-1,10.5-2.6c3.7-1.7,7-4.1,9.8-7l12.5,13.4c-4.5,4.7-9.9,8.5-15.8,11.1
	c-5.7,2.7-11.9,4.1-18.1,4.1c-7.7,0.1-15.2-1.8-21.9-5.6c-6.4-3.6-11.8-8.9-15.4-15.3c-3.8-6.6-5.7-14.1-5.6-21.7
	c-0.2-15.2,8-29.3,21.4-36.5c12.5-6.7,27.3-7.3,40.3-1.7c5.7,2.4,10.8,5.9,15.1,10.3l-12.4,14.9C236.8,31,233.6,28.3,229.9,26.3z"/>
<path class="st0" d="M320.2,88.4l-5.6-14.5h-35.4l-5.7,14.5h-21.9l35.1-81.8h21.9l34.3,81.8H320.2z M285.6,57.6h22.6L297,28.4
	L285.6,57.6z"/>
<path class="st0" d="M350.3,6.6h21.4v63.6h34.7v18.2h-56L350.3,6.6z"/>
<path class="st0" d="M416,6.6h21.4v63.6H472v18.2h-56V6.6z"/>
<path class="st0" d="M536.6,9.1c4.1,1.4,7.8,3.8,10.6,7.2c2.5,3.1,3.8,7,3.7,11c0.1,4.1-1.3,8-3.8,11.2c-2.6,3.3-6.3,5.6-10.3,6.5
	c4.8,0.8,9.2,3.3,12.3,7.1c3,3.9,4.6,8.6,4.5,13.5c0.1,4.3-1.3,8.6-3.8,12.1c-2.8,3.7-6.6,6.4-11,7.9c-5.3,1.9-11,2.9-16.7,2.7
	h-40.4V6.6h38.9C526,6.4,531.4,7.3,536.6,9.1z M526.4,37c1.7-1.5,2.7-3.7,2.6-6c0.1-2.2-0.8-4.4-2.6-5.8c-2-1.5-4.5-2.1-7-1.9H503
	v15.9h16.3C521.9,39.3,524.4,38.5,526.4,37z M528.2,69.5c2.1-1.5,3.4-3.9,3.3-6.5c0.1-2.5-1.2-4.8-3.3-6.1c-2.2-1.5-5.1-2.2-8.9-2.2
	H503v17.2h16.3C523.1,71.8,526.1,71,528.2,69.5L528.2,69.5z"/>
<path class="st0" d="M626.8,10.8c13.5,7.1,21.9,21.3,21.7,36.5c0.2,15.4-8.1,29.7-21.7,37c-14.1,7.5-31,7.5-45.2,0.1
	c-6.6-3.6-12.1-8.9-15.9-15.3c-3.9-6.6-5.9-14.1-5.8-21.7c-0.2-15.3,8.1-29.4,21.7-36.5C595.8,3.4,612.7,3.4,626.8,10.8L626.8,10.8z
	 M593.2,26.5c-3.5,2.1-6.3,5.1-8.2,8.7c-4.1,7.7-4.1,16.9,0.1,24.5c1.9,3.6,4.8,6.6,8.2,8.8c3.4,2.1,7.2,3.2,11.2,3.2
	c3.9,0,7.8-1.1,11.1-3.2c3.4-2.2,6.2-5.2,8-8.8c3.9-7.7,3.9-16.8,0-24.5c-1.8-3.6-4.6-6.6-8-8.7c-3.3-2.1-7.2-3.2-11.1-3.2
	C600.5,23.3,596.6,24.4,593.2,26.5z"/>
<path class="st0" d="M653.5,6.6h24.9l15.3,23.2L709,6.6h25.2l-27,39.1l29.3,42.7H711L693.6,63l-17,25.3h-25l29.1-41.7L653.5,6.6z"/>
<path class="st1" d="M179,109.4h6.6l14.7,28.3l14.6-28.3h6.6v40.3h-5.2l-0.1-32.2L202,145.4h-3.4l-14.5-27.9v32.2H179V109.4z"/>
<path class="st1" d="M251.1,149.7v-4.3c-2.3,3-5.8,4.5-10.7,4.5c-1.9,0-3.8-0.4-5.5-1.2c-1.5-0.7-2.8-1.9-3.7-3.3
	c-0.9-1.4-1.3-3.1-1.3-4.8c-0.1-2.5,1-4.9,3-6.5c2-1.6,4.8-2.4,8.4-2.4h9.7v-1.4c0.1-1.9-0.6-3.7-2-5c-1.6-1.3-3.7-1.9-5.8-1.8
	c-3.4,0.1-6.7,1.3-9.4,3.3l-2.2-3.7c1.9-1.3,3.9-2.3,6.1-3.1c2.1-0.7,4.4-1,6.6-1c3.8,0,6.7,0.9,8.8,2.8c2.1,2,3.3,4.9,3.2,7.8l0,20
	L251.1,149.7z M247.9,143.7c1.7-1.1,2.8-2.8,3.1-4.8v-3.1h-8.9c-1.9-0.1-3.7,0.3-5.4,1.1c-1.2,0.7-1.9,2.1-1.8,3.4
	c-0.1,1.5,0.6,2.9,1.8,3.8c1.4,1,3.1,1.5,4.8,1.4C243.8,145.6,246.1,144.9,247.9,143.7L247.9,143.7z"/>
<path class="st1" d="M275.6,120.8c2-1.2,4.3-1.8,6.6-1.8v5.2c-5.4-0.6-10.2,3.3-10.8,8.7c0,0.2,0,0.5,0,0.7v16.1H266v-30.5h5.4v6.6
	C272.2,123.7,273.7,122,275.6,120.8z"/>
<path class="st1" d="M309.3,149.7l-9.7-14.8l-5.9,6.1v8.6h-5.4v-42.7h5.4v27.2l14.7-15h6.3L303.3,131l12.4,18.7L309.3,149.7z"/>
<path class="st1" d="M343,123.2c2.4,2.8,3.6,6.6,3.6,11.6c0,0.8,0,1.3-0.1,1.7h-24c0.3,2.5,1.5,4.8,3.4,6.5c1.9,1.6,4.4,2.5,6.9,2.4
	c1.7,0,3.4-0.3,5-1c1.5-0.6,2.9-1.6,4.1-2.8l2.9,3.1c-1.5,1.6-3.4,2.9-5.4,3.7c-2.2,0.9-4.6,1.4-7,1.3c-2.8,0.1-5.5-0.6-8-1.9
	c-2.3-1.3-4.2-3.1-5.4-5.4c-2.6-5-2.6-11,0-16c1.3-2.3,3.1-4.2,5.4-5.5c2.4-1.4,5.1-2,7.9-2C337,119,340.6,120.4,343,123.2z
	 M341.8,132.4c0.1-4.9-3.8-8.9-8.7-9c-0.3,0-0.5,0-0.8,0c-2.5-0.1-4.9,0.8-6.7,2.4c-1.8,1.7-3,4-3.2,6.5L341.8,132.4z"/>
<path class="st1" d="M370.3,147.7c-2.1,1.4-4.6,2.2-7.1,2.2c-2.2,0.1-4.3-0.7-5.9-2.2c-1.5-1.4-2.2-3.6-2.2-6.5v-16.9h-4.3v-4.1h4.3
	v-8.2h5.4v8.2h9.3v4.1h-9.3v15.9c-0.1,1.3,0.2,2.6,0.9,3.6c0.7,0.8,1.7,1.2,2.8,1.1c1.7-0.1,3.3-0.6,4.7-1.4L370.3,147.7z"/>
<path class="st1" d="M401.4,121c2.2,1.3,4,3.2,5.2,5.5c2.4,5.1,2.4,10.9,0,16c-1.1,2.3-2.9,4.1-5.1,5.4c-2.3,1.3-4.9,2-7.6,1.9
	c-2.4,0.1-4.7-0.5-6.8-1.6c-1.9-1.1-3.5-2.7-4.6-4.6v17.2h-5.4v-41.6h5.4v6c1.1-1.9,2.6-3.5,4.6-4.6c2.1-1.1,4.4-1.7,6.7-1.6
	C396.4,119,399,119.7,401.4,121z M398,143.8c1.6-0.9,2.8-2.3,3.6-3.9c0.9-1.7,1.3-3.6,1.3-5.6c0-1.9-0.4-3.8-1.3-5.5
	c-0.8-1.6-2.1-2.9-3.6-3.8c-1.6-0.9-3.4-1.4-5.2-1.4c-1.8,0-3.7,0.4-5.3,1.4c-1.6,0.9-2.8,2.3-3.7,3.9c-1.8,3.5-1.8,7.6,0,11.1
	c0.8,1.6,2.1,2.9,3.7,3.8C390.8,145.7,394.8,145.7,398,143.8L398,143.8z"/>
<path class="st1" d="M416.2,106.9h5.4v42.7h-5.4V106.9z"/>
<path class="st1" d="M450.9,149.7v-4.3c-2.3,3-5.8,4.5-10.7,4.5c-1.9,0-3.8-0.4-5.6-1.2c-1.5-0.7-2.8-1.9-3.7-3.3
	c-0.9-1.4-1.3-3.1-1.3-4.8c-0.1-2.5,1-4.9,3-6.5c2-1.6,4.8-2.4,8.4-2.4h9.7v-1.4c0.1-1.9-0.6-3.7-2-5c-1.6-1.3-3.7-1.9-5.8-1.8
	c-3.4,0.1-6.7,1.3-9.4,3.3l-2.2-3.7c1.9-1.3,3.9-2.3,6.1-3.1c2.2-0.7,4.4-1,6.7-1c3.8,0,6.7,0.9,8.8,2.8c2.1,2,3.3,4.9,3.2,7.8
	l0.1,20L450.9,149.7z M447.7,143.7c1.7-1.1,2.8-2.8,3.1-4.8v-3.1h-8.9c-1.9-0.1-3.7,0.3-5.4,1.1c-1.2,0.7-1.9,2.1-1.8,3.4
	c-0.1,1.5,0.6,2.9,1.8,3.8c1.4,1,3.1,1.5,4.8,1.4C443.6,145.6,445.8,144.9,447.7,143.7L447.7,143.7z"/>
<path class="st1" d="M478.4,123.8c-1.9,0-3.7,0.4-5.3,1.3c-1.5,0.9-2.8,2.2-3.7,3.7c-1.7,3.5-1.7,7.7,0,11.2c0.8,1.6,2,2.9,3.6,3.8
	c1.6,0.9,3.4,1.4,5.2,1.4c1.8,0,3.6-0.3,5.3-1c1.5-0.6,2.9-1.6,3.9-2.8l3,3.1c-1.4,1.8-3.2,3.1-5.3,4c-2.3,1-4.7,1.4-7.2,1.4
	c-2.8,0-5.5-0.7-7.9-2c-2.3-1.3-4.1-3.2-5.4-5.4c-2.6-5-2.6-11,0-16c1.2-2.3,3.1-4.2,5.4-5.5c2.4-1.3,5.1-2,7.9-2
	c2.4,0,4.7,0.4,6.9,1.2c2,0.7,3.7,1.9,5.2,3.4l-2.9,3.7C484.8,125,481.7,123.7,478.4,123.8z"/>
<path class="st1" d="M519.7,123.2c2.4,2.8,3.6,6.6,3.6,11.6c0,0.8,0,1.3,0,1.7h-24.1c0.3,2.5,1.5,4.8,3.4,6.5
	c1.9,1.6,4.4,2.5,6.9,2.4c1.7,0,3.4-0.3,5-1c1.5-0.6,2.9-1.6,4.1-2.8l2.9,3.1c-1.5,1.6-3.4,2.9-5.4,3.7c-2.2,0.9-4.6,1.4-7,1.3
	c-2.8,0.1-5.5-0.6-8-1.9c-2.3-1.3-4.2-3.2-5.4-5.4c-2.6-5-2.6-11,0-16c1.3-2.3,3.1-4.2,5.4-5.5c2.4-1.4,5.1-2,7.9-2
	C513.7,119,517.3,120.4,519.7,123.2z M518.5,132.4c0.1-4.9-3.8-8.9-8.7-9c-0.2,0-0.5,0-0.7,0c-2.5-0.1-4.9,0.8-6.7,2.4
	c-1.8,1.7-3,4-3.2,6.5L518.5,132.4z"/>
<path class="st0" d="M98.4,109.4l-0.2-3.4c-0.2-13.4-6.6-27.2-16-36.6s-23.5-16-37.1-16c-0.4,0-0.9,0.1-1.2,0.4
	c-0.9,0.9-0.9,11.8,0,12.7C44.3,67,61,67.7,72.5,79.1c6.9,6.9,9.6,13.7,11.2,22.2V131l0,0v12.1c5-0.7,10-1.8,14.8-3.6L98.4,109.4z"
	/>
<path class="st0" d="M74.4,0.3C34.8,0.3,2.7,32.4,2.7,72c0,13,3.6,25.8,10.3,37L0,147.6l39.7-12.7c10.6,5.9,22.6,8.9,34.7,8.9
	c1,0,2.1,0,3.1-0.1v-39.4c-1-7.6-4.5-14.7-9.9-20.2C62,78.4,53.2,74,45.1,74c-0.5,0-0.9,0.2-1.2,0.5c-0.9,0.9-0.9,11.9,0,12.8
	c0.6,0.6,8.4,0.8,14,6.4c2.7,2.8,4.6,6.3,5.5,10.1c0.1,0.5,0.3,1,0.4,1.5l0.5,25.5c-8.1-1.4-15.8-4.5-22.7-9l-23,7.3l7.6-22.2
	C6.7,80.3,12.7,42.9,39.4,23.6s64.1-13.4,83.4,13.3c16.4,22.6,14.9,53.6-3.6,74.6l-0.4-6.3l0,0c-0.5-18.7-9-37.2-22.1-50.3
	c-13.4-13.4-32.6-22-51.7-22.1c-0.5,0-0.9,0.2-1.2,0.5C43,34.2,43,45.1,43.9,46c0.3,0.3,0.7,0.5,1.2,0.5c16.5,1.1,30.2,6.2,42,18.1
	c10.7,10.7,15.9,22.9,17.6,37.2l-0.1,16v19.3c35.9-16.7,51.5-59.4,34.8-95.3C127.6,16.5,102.3,0.3,74.4,0.3z"/>
</svg>
